<?xml version="1.0" encoding="UTF-8"?>
<svg width="17px" height="20px" viewBox="0 0 17 20" version="1.1" xmlns="http://www.w3.org/2000/svg" xmlns:xlink="http://www.w3.org/1999/xlink">
    <!-- Generator: Sketch 42 (36781) - http://www.bohemiancoding.com/sketch -->
    <title>cup</title>
    <desc>Created with Sketch.</desc>
    <defs></defs>
    <g id="Page-1" stroke="none" stroke-width="1" fill="none" fill-rule="evenodd">
        <g id="cup" fill-rule="nonzero" fill="#65C6C4">
            <g id="Group">
                <path d="M16.0641434,6.91914474 L12.6296163,6.91914474 L12.6296163,6.68026316 C12.6296163,6.18875 12.2305116,5.79032895 11.7383023,5.79032895 L0.909104651,5.79032895 C0.416829457,5.79032895 0.0177906977,6.18881579 0.0177906977,6.68026316 L0.0177906977,19.0832237 C0.0177906977,19.5747368 0.416895349,19.9731579 0.909104651,19.9731579 L11.7382364,19.9731579 C12.2305116,19.9731579 12.6295504,19.5746711 12.6295504,19.0832237 L12.6295504,16.7381579 C13.2814806,16.5555921 14.075407,16.1750658 14.8046938,15.3929605 C16.2318372,13.8625 16.9554574,11.3109211 16.9554574,7.80907895 C16.9554574,7.31763158 16.5563527,6.91914474 16.0641434,6.91914474 Z M4.71802713,14.0067763 C4.91524031,14.1701316 4.94232171,14.4621053 4.77864729,14.6590132 C4.68686047,14.7692763 4.55474806,14.8261842 4.4215814,14.8261842 C4.31701163,14.8261842 4.2121124,14.7913158 4.12553101,14.7194737 L2.33796124,13.2381579 C2.23174419,13.15 2.17033333,13.0195395 2.17033333,12.8817105 C2.17033333,12.7440132 2.23174419,12.6134211 2.33796124,12.5253947 L4.12553101,11.0440132 C4.3226124,10.8806579 4.61497287,10.9078289 4.77864729,11.1046053 C4.94232171,11.3014474 4.91524031,11.5934868 4.71802713,11.7568421 L3.36053101,12.8817763 L4.71802713,14.0067763 Z M7.62127132,10.0723684 L5.91718605,15.9489474 C5.85827907,16.1516447 5.67299225,16.2832895 5.47182558,16.2832895 C5.42906202,16.2832895 5.38570543,16.2773684 5.3426124,16.2649342 C5.09650775,16.1938158 4.95477519,15.9371053 5.02613566,15.69125 L6.73008915,9.81467105 C6.80131783,9.56901316 7.05855814,9.42756579 7.30466279,9.49855263 C7.55070155,9.56980263 7.69236822,9.82651316 7.62127132,10.0723684 Z M10.3092481,13.2381579 L8.52181008,14.7195395 C8.43516279,14.79125 8.33006589,14.82625 8.22582558,14.82625 C8.09265891,14.82625 7.96041473,14.7693421 7.8686938,14.6590789 C7.70501938,14.4621711 7.73210078,14.1701974 7.92931395,14.0068421 L9.28681008,12.8817105 L7.92931395,11.7567763 C7.73210078,11.5934211 7.70501938,11.3013816 7.8686938,11.1045395 C8.03230233,10.9077632 8.32472868,10.8805921 8.52187597,11.0439474 L10.309314,12.5253289 C10.4156628,12.6133553 10.4770078,12.7439474 10.4770078,12.8816447 C10.4769419,13.0195395 10.4155969,13.15 10.3092481,13.2381579 Z M12.6295504,14.8454605 L12.6295504,8.69907895 L15.1556977,8.69907895 C14.992155,12.8301316 13.6864496,14.3205263 12.6295504,14.8454605 Z" id="Shape"></path>
                <path d="M3.54107364,3.79993421 C3.63457364,3.84585526 3.73367442,3.86756579 3.83125969,3.86756579 C4.07453101,3.86756579 4.30851163,3.7325 4.4230969,3.49973684 L5.67931783,0.948289474 C5.83989535,0.622236842 5.70527907,0.227960526 5.37865504,0.0676315789 C5.05222868,-0.0926315789 4.6572093,0.0416447368 4.49669767,0.367828947 L3.24041085,2.91927632 C3.07989922,3.24532895 3.21444961,3.63960526 3.54107364,3.79993421 Z" id="Shape"></path>
                <path d="M7.26842248,3.79993421 C7.36192248,3.84585526 7.46102326,3.86756579 7.55867442,3.86756579 C7.80194574,3.86756579 8.03586047,3.7325 8.15044574,3.49980263 L9.40693023,0.948355263 C9.56744186,0.622236842 9.43295736,0.227960526 9.10633333,0.0676315789 C8.77977519,-0.0926315789 8.3848876,0.0416447368 8.22424419,0.367763158 L6.96775969,2.91921053 C6.80731395,3.24532895 6.94186434,3.63960526 7.26842248,3.79993421 Z" id="Shape"></path>
            </g>
        </g>
    </g>
</svg>